STARTFONT 2.1
FONT WH:/gn/phr/ast-xfonts/dancer.ast
SIZE 44 75 75
FONTBOUNDINGBOX 47 36 0 0
STARTPROPERTIES 3
FONT_DESCENT 10
FONT_ASCENT 36
COPYRIGHT "Public domain font.  Share and enjoy."
ENDPROPERTIES
CHARS 51
STARTCHAR C040
ENCODING 32
SWIDTH 1068 0
DWIDTH 47 0
BBX 47 46 0 -10
BITMAP
00
00
00
00
00
00
00
00
00
00
00
00
00
00
00
00
00
00
00
00
00
00
00
00
00
00
00
00
00
00
00
00
00
00
00
00
00
00
00
00
00
00
00
00
00
00
ENDCHAR
STARTCHAR +
ENCODING 43
SWIDTH 1068 0
DWIDTH 47 0
BBX 47 46 0 -10
BITMAP
000006000000
000006000000
000006000000
000006000000
000006000000
000006000000
000006000000
000006000000
000006000000
000006000000
000006000000
000006000000
000006000000
000006000000
000006000000
000006000000
000006000000
000006000000
000006000000
000006000000
fffffffffffe
fffffffffffe
000006000000
000006000000
000006000000
000006000000
000006000000
000006000000
000006000000
000006000000
000006000000
000006000000
000006000000
000006000000
000006000000
000006000000
000006000000
000006000000
000006000000
000006000000
000006000000
000006000000
000006000000
000006000000
000006000000
000000000000
ENDCHAR
STARTCHAR -
ENCODING 45
SWIDTH 1068 0
DWIDTH 47 0
BBX 47 46 0 -10
BITMAP
000000000000
000000000000
000000000000
000000000000
000000000000
000000000000
000000000000
000000000000
000000000000
000000000000
000000000000
000000000000
000000000000
000000000000
000000000000
000000000000
000000000000
000000000000
000000000000
000000000000
fffffffffffe
fffffffffffe
000000000000
000000000000
000000000000
000000000000
000000000000
000000000000
000000000000
000000000000
000000000000
000000000000
000000000000
000000000000
000000000000
000000000000
000000000000
000000000000
000000000000
000000000000
000000000000
000000000000
000000000000
000000000000
000000000000
000000000000
ENDCHAR
STARTCHAR .
ENCODING 46
SWIDTH 1068 0
DWIDTH 47 0
BBX 47 46 0 -10
BITMAP
0000
0000
0000
0000
0000
0000
0000
0000
0000
0000
0000
0000
0000
0000
0000
0000
0000
3e00
7f00
ff80
ff80
ff80
ff80
ff80
7f00
3e00
0000
0000
0000
0000
0000
0000
0000
0000
0000
0000
0000
0000
0000
0000
0000
0000
0000
0000
0000
0000
ENDCHAR
STARTCHAR 0
ENCODING 48
SWIDTH 1068 0
DWIDTH 47 0
BBX 47 46 0 -10
BITMAP
0000
0000
0000
0000
0000
0000
0000
0000
0000
0000
0000
0000
0000
0000
1e00
3f00
7380
61c0
61c0
6380
6780
6d80
7980
7180
e180
e180
7380
3f00
1e00
0000
0000
0000
0000
0000
0000
0000
0000
0000
0000
0000
0000
0000
0000
0000
0000
0000
ENDCHAR
STARTCHAR 1
ENCODING 49
SWIDTH 1068 0
DWIDTH 47 0
BBX 47 46 0 -10
BITMAP
00
00
00
00
00
00
00
00
00
00
00
00
00
00
18
38
78
18
18
18
18
18
18
18
18
18
18
ff
ff
00
00
00
00
00
00
00
00
00
00
00
00
00
00
00
00
00
ENDCHAR
STARTCHAR 2
ENCODING 50
SWIDTH 1068 0
DWIDTH 47 0
BBX 47 46 0 -10
BITMAP
0000
0000
0000
0000
0000
0000
0000
0000
0000
0000
0000
0000
0000
0000
3e00
7f00
c180
c180
0180
0180
0300
0600
0c00
1800
3000
6000
c000
ff80
ff80
0000
0000
0000
0000
0000
0000
0000
0000
0000
0000
0000
0000
0000
0000
0000
0000
0000
ENDCHAR
STARTCHAR 3
ENCODING 51
SWIDTH 1068 0
DWIDTH 47 0
BBX 47 46 0 -10
BITMAP
0000
0000
0000
0000
0000
0000
0000
0000
0000
0000
0000
0000
0000
0000
3e00
7f00
c380
c180
0180
0300
1e00
1f00
0180
0180
0180
c180
c380
7f00
3e00
0000
0000
0000
0000
0000
0000
0000
0000
0000
0000
0000
0000
0000
0000
0000
0000
0000
ENDCHAR
STARTCHAR 4
ENCODING 52
SWIDTH 1068 0
DWIDTH 47 0
BBX 47 46 0 -10
BITMAP
0000
0000
0000
0000
0000
0000
0000
0000
0000
0000
0000
0000
0000
0000
0c00
0c00
1800
1800
3000
3600
6600
6600
c600
c600
ff80
ff80
0600
0600
0600
0000
0000
0000
0000
0000
0000
0000
0000
0000
0000
0000
0000
0000
0000
0000
0000
0000
ENDCHAR
STARTCHAR 5
ENCODING 53
SWIDTH 1068 0
DWIDTH 47 0
BBX 47 46 0 -10
BITMAP
0000
0000
0000
0000
0000
0000
0000
0000
0000
0000
0000
0000
0000
0000
ff00
ff00
c000
c000
c000
c000
fe00
ff00
0380
0180
0180
c180
c380
7f00
3e00
0000
0000
0000
0000
0000
0000
0000
0000
0000
0000
0000
0000
0000
0000
0000
0000
0000
ENDCHAR
STARTCHAR 6
ENCODING 54
SWIDTH 1068 0
DWIDTH 47 0
BBX 47 46 0 -10
BITMAP
0000
0000
0000
0000
0000
0000
0000
0000
0000
0000
0000
0000
0000
0000
3e00
7f00
c180
c180
c000
c000
de00
ff00
e380
c180
c180
c180
e380
7f00
3e00
0000
0000
0000
0000
0000
0000
0000
0000
0000
0000
0000
0000
0000
0000
0000
0000
0000
ENDCHAR
STARTCHAR 7
ENCODING 55
SWIDTH 1068 0
DWIDTH 47 0
BBX 47 46 0 -10
BITMAP
0000
0000
0000
0000
0000
0000
0000
0000
0000
0000
0000
0000
0000
0000
ff80
ff80
0180
0300
0300
0600
0600
0c00
0c00
1800
1800
3000
3000
6000
6000
0000
0000
0000
0000
0000
0000
0000
0000
0000
0000
0000
0000
0000
0000
0000
0000
0000
ENDCHAR
STARTCHAR 8
ENCODING 56
SWIDTH 1068 0
DWIDTH 47 0
BBX 47 46 0 -10
BITMAP
0000
0000
0000
0000
0000
0000
0000
0000
0000
0000
0000
0000
0000
0000
1e00
3f00
6180
6180
6180
3300
1e00
3f00
7380
e1c0
c0c0
c0c0
e1c0
7f80
3f00
0000
0000
0000
0000
0000
0000
0000
0000
0000
0000
0000
0000
0000
0000
0000
0000
0000
ENDCHAR
STARTCHAR 9
ENCODING 57
SWIDTH 1068 0
DWIDTH 47 0
BBX 47 46 0 -10
BITMAP
0000
0000
0000
0000
0000
0000
0000
0000
0000
0000
0000
0000
0000
0000
3e00
7f00
e380
c180
c180
c180
e380
7f80
3d80
0180
0180
c180
c380
7f00
3e00
0000
0000
0000
0000
0000
0000
0000
0000
0000
0000
0000
0000
0000
0000
0000
0000
0000
ENDCHAR
STARTCHAR A
ENCODING 65
SWIDTH 1068 0
DWIDTH 47 0
BBX 47 46 0 -10
BITMAP
0000
0000
0000
0000
0000
0000
0000
0000
0000
0000
0000
0000
0000
0000
3e00
7f00
e380
c180
c180
c180
c180
c180
ff80
ff80
c180
c180
c180
c180
c180
0000
0000
0000
0000
0000
0000
0000
0000
0000
0000
0000
0000
0000
0000
0000
0000
0000
ENDCHAR
STARTCHAR B
ENCODING 66
SWIDTH 1068 0
DWIDTH 47 0
BBX 47 46 0 -10
BITMAP
0000
0000
0000
0000
0000
0000
0000
0000
0000
0000
0000
0000
0000
0000
fc00
fe00
c700
c300
c300
c300
c600
fe00
ff00
c300
c180
c180
c180
c380
ff00
fc00
0000
0000
0000
0000
0000
0000
0000
0000
0000
0000
0000
0000
0000
0000
0000
0000
ENDCHAR
STARTCHAR C
ENCODING 67
SWIDTH 1068 0
DWIDTH 47 0
BBX 47 46 0 -10
BITMAP
0000
0000
0000
0000
0000
0000
0000
0000
0000
0000
0000
0000
0000
0000
3e00
7f00
e380
c180
c000
c000
c000
c000
c000
c000
c000
c180
e380
7f00
3e00
0000
0000
0000
0000
0000
0000
0000
0000
0000
0000
0000
0000
0000
0000
0000
0000
0000
ENDCHAR
STARTCHAR D
ENCODING 68
SWIDTH 1068 0
DWIDTH 47 0
BBX 47 46 0 -10
BITMAP
0000
0000
0000
0000
0000
0000
0000
0000
0000
0000
0000
0000
0000
0000
fe00
ff00
c380
c180
c180
c180
c180
c180
c180
c180
c180
c180
c380
ff00
fe00
0000
0000
0000
0000
0000
0000
0000
0000
0000
0000
0000
0000
0000
0000
0000
0000
0000
ENDCHAR
STARTCHAR E
ENCODING 69
SWIDTH 1068 0
DWIDTH 47 0
BBX 47 46 0 -10
BITMAP
0000
0000
0000
0000
0000
0000
0000
0000
0000
0000
0000
0000
0000
0000
ff80
ff80
c000
c000
c000
c000
fe00
fe00
c000
c000
c000
c000
c000
ff80
ff80
0000
0000
0000
0000
0000
0000
0000
0000
0000
0000
0000
0000
0000
0000
0000
0000
0000
ENDCHAR
STARTCHAR F
ENCODING 70
SWIDTH 1068 0
DWIDTH 47 0
BBX 47 46 0 -10
BITMAP
0000
0000
0000
0000
0000
0000
0000
0000
0000
0000
0000
0000
0000
0000
ff80
ff80
c000
c000
c000
c000
c000
fe00
fe00
c000
c000
c000
c000
c000
c000
0000
0000
0000
0000
0000
0000
0000
0000
0000
0000
0000
0000
0000
0000
0000
0000
0000
ENDCHAR
STARTCHAR G
ENCODING 71
SWIDTH 1068 0
DWIDTH 47 0
BBX 47 46 0 -10
BITMAP
0000
0000
0000
0000
0000
0000
0000
0000
0000
0000
0000
0000
0000
0000
3e00
7f00
e380
c180
c000
c000
c000
c000
c780
c780
c180
c180
e380
7f00
3e00
0000
0000
0000
0000
0000
0000
0000
0000
0000
0000
0000
0000
0000
0000
0000
0000
0000
ENDCHAR
STARTCHAR H
ENCODING 72
SWIDTH 1068 0
DWIDTH 47 0
BBX 47 46 0 -10
BITMAP
0000
0000
0000
0000
0000
0000
0000
0000
0000
0000
0000
0000
0000
0000
c180
c180
c180
c180
c180
c180
ff80
ff80
c180
c180
c180
c180
c180
c180
c180
0000
0000
0000
0000
0000
0000
0000
0000
0000
0000
0000
0000
0000
0000
0000
0000
0000
ENDCHAR
STARTCHAR I
ENCODING 73
SWIDTH 1068 0
DWIDTH 47 0
BBX 47 46 0 -10
BITMAP
00
00
00
00
00
00
00
00
00
00
00
00
00
00
fc
fc
30
30
30
30
30
30
30
30
30
30
30
fc
fc
00
00
00
00
00
00
00
00
00
00
00
00
00
00
00
00
00
ENDCHAR
STARTCHAR J
ENCODING 74
SWIDTH 1068 0
DWIDTH 47 0
BBX 47 46 0 -10
BITMAP
0000
0000
0000
0000
0000
0000
0000
0000
0000
0000
0000
0000
0000
0000
0180
0180
0180
0180
0180
0180
0180
0180
0180
0180
0180
c180
c380
7f00
3e00
0000
0000
0000
0000
0000
0000
0000
0000
0000
0000
0000
0000
0000
0000
0000
0000
0000
ENDCHAR
STARTCHAR K
ENCODING 75
SWIDTH 1068 0
DWIDTH 47 0
BBX 47 46 0 -10
BITMAP
0000
0000
0000
0000
0000
0000
0000
0000
0000
0000
0000
0000
0000
0000
c180
c300
c600
cc00
d800
f000
e000
e000
f000
d800
cc00
c600
c300
c180
c080
0000
0000
0000
0000
0000
0000
0000
0000
0000
0000
0000
0000
0000
0000
0000
0000
0000
ENDCHAR
STARTCHAR L
ENCODING 76
SWIDTH 1068 0
DWIDTH 47 0
BBX 47 46 0 -10
BITMAP
0000
0000
0000
0000
0000
0000
0000
0000
0000
0000
0000
0000
0000
0000
c000
c000
c000
c000
c000
c000
c000
c000
c000
c000
c000
c000
c000
ff80
ff80
0000
0000
0000
0000
0000
0000
0000
0000
0000
0000
0000
0000
0000
0000
0000
0000
0000
ENDCHAR
STARTCHAR M
ENCODING 77
SWIDTH 1068 0
DWIDTH 47 0
BBX 47 46 0 -10
BITMAP
0000
0000
0000
0000
0000
0000
0000
0000
0000
0000
0000
0000
0000
0000
c180
e380
f780
d580
dd80
dd80
c980
c180
c180
c180
c180
c180
c180
c180
c180
0000
0000
0000
0000
0000
0000
0000
0000
0000
0000
0000
0000
0000
0000
0000
0000
0000
ENDCHAR
STARTCHAR N
ENCODING 78
SWIDTH 1068 0
DWIDTH 47 0
BBX 47 46 0 -10
BITMAP
0000
0000
0000
0000
0000
0000
0000
0000
0000
0000
0000
0000
0000
0000
c180
e180
e180
f180
f180
d980
d980
dd80
cd80
cd80
c780
c780
c380
c380
c180
0000
0000
0000
0000
0000
0000
0000
0000
0000
0000
0000
0000
0000
0000
0000
0000
0000
ENDCHAR
STARTCHAR O
ENCODING 79
SWIDTH 1068 0
DWIDTH 47 0
BBX 47 46 0 -10
BITMAP
0000
0000
0000
0000
0000
0000
0000
0000
0000
0000
0000
0000
0000
0000
3e00
7f00
e380
c180
c180
c180
c180
c180
c180
c180
c180
c180
e380
7f00
3e00
0000
0000
0000
0000
0000
0000
0000
0000
0000
0000
0000
0000
0000
0000
0000
0000
0000
ENDCHAR
STARTCHAR P
ENCODING 80
SWIDTH 1068 0
DWIDTH 47 0
BBX 47 46 0 -10
BITMAP
0000
0000
0000
0000
0000
0000
0000
0000
0000
0000
0000
0000
0000
0000
fe00
ff00
c380
c180
c180
c180
c380
ff00
fe00
c000
c000
c000
c000
c000
c000
0000
0000
0000
0000
0000
0000
0000
0000
0000
0000
0000
0000
0000
0000
0000
0000
0000
ENDCHAR
STARTCHAR Q
ENCODING 81
SWIDTH 1068 0
DWIDTH 47 0
BBX 47 46 0 -10
BITMAP
0000
0000
0000
0000
0000
0000
0000
0000
0000
0000
0000
0000
0000
0000
3e00
7f00
e380
c180
c180
c180
c180
c180
c180
c180
c180
c780
e780
7f00
3fc0
00c0
0000
0000
0000
0000
0000
0000
0000
0000
0000
0000
0000
0000
0000
0000
0000
0000
ENDCHAR
STARTCHAR R
ENCODING 82
SWIDTH 1068 0
DWIDTH 47 0
BBX 47 46 0 -10
BITMAP
0000
0000
0000
0000
0000
0000
0000
0000
0000
0000
0000
0000
0000
0000
fe00
ff00
c380
c180
c180
c380
ff00
fe00
cc00
c600
c600
c300
c300
c180
c180
0000
0000
0000
0000
0000
0000
0000
0000
0000
0000
0000
0000
0000
0000
0000
0000
0000
ENDCHAR
STARTCHAR S
ENCODING 83
SWIDTH 1068 0
DWIDTH 47 0
BBX 47 46 0 -10
BITMAP
0000
0000
0000
0000
0000
0000
0000
0000
0000
0000
0000
0000
0000
0000
3e00
7f00
c380
c180
c000
c000
7e00
3f00
0380
0180
0180
c180
c380
ff00
7e00
0000
0000
0000
0000
0000
0000
0000
0000
0000
0000
0000
0000
0000
0000
0000
0000
0000
ENDCHAR
STARTCHAR T
ENCODING 84
SWIDTH 1068 0
DWIDTH 47 0
BBX 47 46 0 -10
BITMAP
0000
0000
0000
0000
0000
0000
0000
0000
0000
0000
0000
0000
0000
0000
ffc0
ffc0
0c00
0c00
0c00
0c00
0c00
0c00
0c00
0c00
0c00
0c00
0c00
0c00
0c00
0000
0000
0000
0000
0000
0000
0000
0000
0000
0000
0000
0000
0000
0000
0000
0000
0000
ENDCHAR
STARTCHAR U
ENCODING 85
SWIDTH 1068 0
DWIDTH 47 0
BBX 47 46 0 -10
BITMAP
0000
0000
0000
0000
0000
0000
0000
0000
0000
0000
0000
0000
0000
0000
c180
c180
c180
c180
c180
c180
c180
c180
c180
c180
c180
c180
e380
7f00
3e00
0000
0000
0000
0000
0000
0000
0000
0000
0000
0000
0000
0000
0000
0000
0000
0000
0000
ENDCHAR
STARTCHAR V
ENCODING 86
SWIDTH 1068 0
DWIDTH 47 0
BBX 47 46 0 -10
BITMAP
0000
0000
0000
0000
0000
0000
0000
0000
0000
0000
0000
0000
0000
0000
c0c0
c0c0
c0c0
c0c0
6180
6180
6180
3300
3300
3300
1200
1e00
1e00
0c00
0c00
0000
0000
0000
0000
0000
0000
0000
0000
0000
0000
0000
0000
0000
0000
0000
0000
0000
ENDCHAR
STARTCHAR W
ENCODING 87
SWIDTH 1068 0
DWIDTH 47 0
BBX 47 46 0 -10
BITMAP
0000
0000
0000
0000
0000
0000
0000
0000
0000
0000
0000
0000
0000
0000
c180
c180
c180
c180
c180
c180
c180
c180
c980
dd80
d580
d580
f780
e380
c180
0000
0000
0000
0000
0000
0000
0000
0000
0000
0000
0000
0000
0000
0000
0000
0000
0000
ENDCHAR
STARTCHAR X
ENCODING 88
SWIDTH 1068 0
DWIDTH 47 0
BBX 47 46 0 -10
BITMAP
0000
0000
0000
0000
0000
0000
0000
0000
0000
0000
0000
0000
0000
0000
c180
c180
6300
6300
3600
3600
1c00
1c00
1c00
3600
3600
6300
6300
c180
c180
0000
0000
0000
0000
0000
0000
0000
0000
0000
0000
0000
0000
0000
0000
0000
0000
0000
ENDCHAR
STARTCHAR Y
ENCODING 89
SWIDTH 1068 0
DWIDTH 47 0
BBX 47 46 0 -10
BITMAP
0000
0000
0000
0000
0000
0000
0000
0000
0000
0000
0000
0000
0000
0000
c0c0
c0c0
6180
6180
3300
3300
1e00
1e00
0c00
0c00
0c00
0c00
0c00
0c00
0c00
0000
0000
0000
0000
0000
0000
0000
0000
0000
0000
0000
0000
0000
0000
0000
0000
0000
ENDCHAR
STARTCHAR Z
ENCODING 90
SWIDTH 1068 0
DWIDTH 47 0
BBX 47 46 0 -10
BITMAP
0000
0000
0000
0000
0000
0000
0000
0000
0000
0000
0000
0000
0000
0000
ffc0
ffc0
0040
00c0
0180
0300
0600
0c00
1800
3000
6000
c000
8000
ffc0
ffc0
0000
0000
0000
0000
0000
0000
0000
0000
0000
0000
0000
0000
0000
0000
0000
0000
0000
ENDCHAR
STARTCHAR a
ENCODING 97
SWIDTH 1068 0
DWIDTH 47 0
BBX 47 46 0 -10
BITMAP
00000000
00000000
00000000
00000000
00000000
00000000
fffffffc
fffffffc
c000000c
c000000c
c000000c
c000000c
c000000c
c000000c
c000000c
c000000c
c000000c
c000000c
c000000c
c000000c
c000000c
c000000c
c000000c
c000000c
c000000c
c000000c
c000000c
c000000c
c000000c
c000000c
c000000c
c000000c
c000000c
c000000c
fffffffc
fffffffc
000fe000
001ff000
001ff000
001ff000
000fe000
00038000
00000000
00000000
00000000
00000000
ENDCHAR
STARTCHAR b
ENCODING 98
SWIDTH 1068 0
DWIDTH 47 0
BBX 47 46 0 -10
BITMAP
0000000000
0000000000
0000000000
0000000000
0000000000
0000000000
03fffffff0
03fffffff0
0300000030
0300000030
0300000030
0300000030
0300000030
0300000030
0300000030
3b00000030
7f00000030
7f00000030
ff00000030
ff00000030
ff00000030
7f00000030
7f00000030
3b00000030
0300000030
0300000030
0300000030
0300000030
0300000030
0300000030
0300000030
0300000030
0300000030
0300000030
03fffffff0
03fffffff0
0000000000
0000000000
0000000000
0000000000
0000000000
0000000000
0000000000
0000000000
0000000000
0000000000
ENDCHAR
STARTCHAR c
ENCODING 99
SWIDTH 1068 0
DWIDTH 47 0
BBX 47 46 0 -10
BITMAP
0000000000
0000000000
0000000000
0000000000
0000000000
0000000000
fffffffc00
fffffffc00
c000000c00
c000000c00
c000000c00
c000000c00
c000000c00
c000000c00
c000000c00
c000000dc0
c000000fe0
c000000fe0
c000000ff0
c000000ff0
c000000ff0
c000000fe0
c000000fe0
c000000dc0
c000000c00
c000000c00
c000000c00
c000000c00
c000000c00
c000000c00
c000000c00
c000000c00
c000000c00
c000000c00
fffffffc00
fffffffc00
0000000000
0000000000
0000000000
0000000000
0000000000
0000000000
0000000000
0000000000
0000000000
0000000000
ENDCHAR
STARTCHAR d
ENCODING 100
SWIDTH 1068 0
DWIDTH 47 0
BBX 47 46 0 -10
BITMAP
00038000
000fe000
001ff000
001ff000
001ff000
000fe000
fffffffc
fffffffc
c000000c
c000000c
c000000c
c000000c
c000000c
c000000c
c000000c
c000000c
c000000c
c000000c
c000000c
c000000c
c000000c
c000000c
c000000c
c000000c
c000000c
c000000c
c000000c
c000000c
c000000c
c000000c
c000000c
c000000c
c000000c
c000000c
fffffffc
fffffffc
00000000
00000000
00000000
00000000
00000000
00000000
00000000
00000000
00000000
00000000
ENDCHAR
STARTCHAR e
ENCODING 101
SWIDTH 1068 0
DWIDTH 47 0
BBX 47 46 0 -10
BITMAP
00000000
00000000
00000000
00000000
00000000
00000000
fffffffc
fffffffc
c000000c
c000000c
c000000c
c000000c
c000000c
c000000c
c000000c
c000000c
c000000c
c000000c
c000000c
c000000c
c000000c
c000000c
c000000c
c000000c
c000000c
c000000c
c000000c
c000000c
c000000c
c000000c
c000000c
c000000c
c000000c
c000000c
fffffffc
fffffffc
00000000
00000000
00000000
00000000
00000000
00000000
00000000
00000000
00000000
00000000
ENDCHAR
STARTCHAR p
ENCODING 112
SWIDTH 1068 0
DWIDTH 47 0
BBX 47 46 0 -10
BITMAP
00000000
00000000
00000000
00000000
00000000
00000000
f0f87c3c
80000004
80000004
80000004
00000000
00000000
00000000
00000000
80000004
80000004
80000004
80000004
80000004
00000000
00000000
00000000
00000000
80000004
80000004
80000004
80000004
80000004
00000000
00000000
00000000
00000000
80000004
80000004
80000004
f0f87c3c
00000000
00000000
00000000
00000000
00000000
00000000
00000000
00000000
00000000
00000000
ENDCHAR
STARTCHAR w
ENCODING 119
SWIDTH 1068 0
DWIDTH 47 0
BBX 47 46 0 -10
BITMAP
00000000
00000000
00000000
00000000
00000000
00000000
00000000
00000000
ffffffc0
ffffffc0
ffffffc0
ffffffc0
ffffffc0
ffffffc0
ffffffc0
ffffffc0
ffffffc0
ffffffc0
ffffffc0
ffffffc0
ffffffc0
ffffffc0
ffffffc0
ffffffc0
ffffffc0
ffffffc0
ffffffc0
ffffffc0
ffffffc0
ffffffc0
ffffffc0
ffffffc0
ffffffc0
ffffffc0
00000000
00000000
00000000
00000000
00000000
00000000
00000000
00000000
00000000
00000000
00000000
00000000
ENDCHAR
STARTCHAR x
ENCODING 120
SWIDTH 1068 0
DWIDTH 47 0
BBX 47 46 0 -10
BITMAP
00000000
00000000
00000000
00000000
00000000
00000000
00000000
00000000
00800800
01001000
02002000
04004000
08008000
10010000
20020000
40040040
80080080
00100100
00200200
00400400
00800800
01001000
02002000
04004000
08008000
10010000
20020000
40040040
80080080
00100100
00200200
00400400
00800800
01001000
00000000
00000000
00000000
00000000
00000000
00000000
00000000
00000000
00000000
00000000
00000000
00000000
ENDCHAR
STARTCHAR y
ENCODING 121
SWIDTH 1068 0
DWIDTH 47 0
BBX 47 46 0 -10
BITMAP
000000
000000
000000
000000
000000
000000
000000
000000
000000
000000
000000
000000
ffffc0
800040
800040
800040
800040
87f840
840840
840840
840840
840840
840840
840840
87f840
800040
800040
800040
800040
ffffc0
000000
000000
000000
000000
000000
000000
000000
000000
000000
000000
000000
000000
000000
000000
000000
000000
ENDCHAR
STARTCHAR z
ENCODING 122
SWIDTH 1068 0
DWIDTH 47 0
BBX 47 46 0 -10
BITMAP
00000000
00000000
00000000
00000000
00000000
00000000
00000000
00000000
00000000
aaaaaa80
00000000
aaaaaa80
00000000
aaaaaa80
00000000
aaaaaa80
00000000
aaaaaa80
00000000
aaaaaa80
00000000
aaaaaa80
00000000
aaaaaa80
00000000
aaaaaa80
00000000
aaaaaa80
00000000
aaaaaa80
00000000
aaaaaa80
00000000
aaaaaa80
00000000
00000000
00000000
00000000
00000000
00000000
00000000
00000000
00000000
00000000
00000000
00000000
ENDCHAR
STARTCHAR |
ENCODING 124
SWIDTH 1068 0
DWIDTH 47 0
BBX 47 46 0 -10
BITMAP
c0
c0
c0
c0
c0
c0
c0
c0
c0
c0
c0
c0
c0
c0
c0
c0
c0
c0
c0
c0
c0
c0
c0
c0
c0
c0
c0
c0
c0
c0
c0
c0
c0
c0
c0
c0
c0
c0
c0
c0
c0
c0
c0
c0
c0
c0
ENDCHAR
ENDFONT
